<svg id="Layer_1" data-name="Layer 1" xmlns="http://www.w3.org/2000/svg" viewBox="0 0 238.27 29.16"><defs><style>.cls-1{fill:#8338ec;}.cls-2{fill:none;stroke:#8338ec;stroke-miterlimit:10;stroke-width:1.5px;}</style></defs><title>IBRAALI Logo</title><path class="cls-1" d="M105.08,217.26v-.78c1.6-.15,1.79-.28,1.79-2v-8.05c0-1.77-.21-1.94-1.79-2.07v-.78h6.52v.78c-1.58.15-1.79.3-1.79,2.07v8.05c0,1.75.19,1.88,1.79,2v.78Z" transform="translate(-64.21 -191.76)"/><path class="cls-1" d="M122.1,209.7c2.21.4,3.78,1.46,3.78,3.36a3.83,3.83,0,0,1-2,3.31,8.84,8.84,0,0,1-4.22.89h-5.71v-.78c1.63-.17,1.8-.28,1.8-2v-8.05c0-1.77-.28-2-1.78-2.07v-.78h6.42a6.22,6.22,0,0,1,3.47.74,2.73,2.73,0,0,1,1.29,2.35C125.12,208.37,123.47,209.42,122.1,209.7Zm-2.69-.28c2,0,2.75-.86,2.75-2.42a2.28,2.28,0,0,0-2.37-2.54,1.76,1.76,0,0,0-1,.26,1.37,1.37,0,0,0-.19.9v3.8Zm-.82,5c0,1.52.51,2,1.65,2s2.49-1,2.49-3.08-1-2.94-3.4-2.94h-.74Z" transform="translate(-64.21 -191.76)"/><path class="cls-1" d="M140.74,217.39c-.13,0-.38,0-.63,0-2.69-.13-3.47-.7-4.1-1.59a37,37,0,0,1-2.18-3.72,1.18,1.18,0,0,0-1.29-.69l-.42,0v3.08c0,1.71.21,1.86,1.8,2v.78h-6.46v-.78c1.6-.17,1.79-.34,1.79-2v-8.09c0-1.67-.21-1.9-1.79-2v-.78h6.12a6.34,6.34,0,0,1,3.82.81,3.2,3.2,0,0,1,1.42,2.8,3.62,3.62,0,0,1-2.64,3.43c.31.63,1.14,2,1.77,3a17.83,17.83,0,0,0,1.61,2.2,2.51,2.51,0,0,0,1.33.93Zm-8.05-6.91a3.1,3.1,0,0,0,2.07-.55,3,3,0,0,0,1-2.47c0-2.24-1.28-3-2.47-3-.57,0-.84.08-1,.21s-.19.38-.19.8v5Z" transform="translate(-64.21 -191.76)"/><path class="cls-1" d="M149.52,217.26v-.78c1.33-.19,1.33-.42,1-1.33-.21-.64-.55-1.59-.86-2.43h-4.12c-.23.65-.53,1.46-.74,2.11-.44,1.33.06,1.5,1.73,1.65v.78h-5.21v-.78c1.33-.17,1.66-.36,2.38-2.13l4.4-10.92,1-.19c1.35,3.67,2.79,7.43,4.16,11,.78,2,1,2.11,2.34,2.28v.78Zm-1.86-10.09c-.61,1.52-1.2,2.93-1.73,4.47h3.36Z" transform="translate(-64.21 -191.76)"/><path class="cls-1" d="M167.7,213.54c-.17.91-.76,3.15-.95,3.72H156.27v-.78c1.86-.13,2-.28,2-2v-8.05c0-1.77-.21-1.94-1.8-2.07v-.78h6.59v.78c-1.64.15-1.85.3-1.85,2.07v8.2c0,1.16,0,1.69,1.2,1.71,0,0,1,0,1.1,0a2.11,2.11,0,0,0,2-.82,8.94,8.94,0,0,0,1.34-2.2Z" transform="translate(-64.21 -191.76)"/><path class="cls-1" d="M168.9,217.26v-.78c1.6-.15,1.79-.28,1.79-2v-8.05c0-1.77-.21-1.94-1.79-2.07v-.78h6.52v.78c-1.58.15-1.79.3-1.79,2.07v8.05c0,1.75.19,1.88,1.79,2v.78Z" transform="translate(-64.21 -191.76)"/><path class="cls-1" d="M195.1,204.31c-1.39.15-1.82.34-2.62,2.35-.65,1.62-2.83,6.86-4.39,10.83h-1.16c-.59-1.65-3.34-8.89-4.23-11.13-.65-1.58-.92-1.92-2.3-2.05v-.78h6.44l0,.78c-1.54.22-1.54.36-1.2,1.25.65,1.77,2.24,6.12,3,8,1.26-3,2.4-5.89,2.89-7.26s.38-1.78-1.4-2v-.78h5Z" transform="translate(-64.21 -191.76)"/><path class="cls-1" d="M196.09,217.26v-.78c1.6-.15,1.79-.28,1.79-2v-8.05c0-1.77-.21-1.94-1.79-2.07v-.78h6.52v.78c-1.58.15-1.79.3-1.79,2.07v8.05c0,1.75.19,1.88,1.79,2v.78Z" transform="translate(-64.21 -191.76)"/><path class="cls-1" d="M216.13,213.54c-.17.91-.76,3.15-.95,3.72H204.7v-.78c1.86-.13,2-.28,2-2v-8.05c0-1.77-.21-1.94-1.8-2.07v-.78h6.59v.78c-1.64.15-1.85.3-1.85,2.07v8.2c0,1.16,0,1.69,1.2,1.71,0,0,1,0,1.1,0a2.11,2.11,0,0,0,2-.82,8.65,8.65,0,0,0,1.33-2.2Z" transform="translate(-64.21 -191.76)"/><path class="cls-1" d="M228.52,213.54c-.17.91-.76,3.15-1,3.72H217.09v-.78c1.86-.13,2-.28,2-2v-8.05c0-1.77-.21-1.94-1.79-2.07v-.78h6.59v.78c-1.65.15-1.86.3-1.86,2.07v8.2c0,1.16,0,1.69,1.2,1.71,0,0,1,0,1.1,0a2.14,2.14,0,0,0,2-.82,9,9,0,0,0,1.33-2.2Z" transform="translate(-64.21 -191.76)"/><path class="cls-1" d="M237.7,217.26v-.78c1.33-.19,1.33-.42,1-1.33-.21-.64-.55-1.59-.87-2.43h-4.12c-.23.65-.53,1.46-.74,2.11-.44,1.33.07,1.5,1.74,1.65v.78h-5.22v-.78c1.33-.17,1.67-.36,2.39-2.13l4.39-10.92,1-.19c1.35,3.67,2.79,7.43,4.16,11,.78,2,1,2.11,2.35,2.28v.78Zm-1.86-10.09c-.61,1.52-1.2,2.93-1.73,4.47h3.36Z" transform="translate(-64.21 -191.76)"/><path class="cls-1" d="M253,207c-.42-1.35-1-2.9-3-2.9a2,2,0,0,0-2,2c0,1.16.79,1.86,2.65,2.79,2.25,1.12,3.69,2.22,3.69,4.31,0,2.49-2.07,4.31-5.09,4.31a12.13,12.13,0,0,1-3.55-.66c-.12-.48-.48-2.68-.63-3.67l.82-.19c.43,1.33,1.61,3.63,3.68,3.63a1.94,1.94,0,0,0,2.07-2.15c0-1.23-.76-1.95-2.54-2.9-2.19-1.18-3.63-2.24-3.63-4.43s1.73-4,4.9-4a15,15,0,0,1,3,.38c.08.78.23,1.88.4,3.21Z" transform="translate(-64.21 -191.76)"/><path class="cls-1" d="M264.07,208.81a5.15,5.15,0,0,1,3.79,1.13,3.74,3.74,0,0,1,1.11,2.78,4.27,4.27,0,0,1-1.63,3.51,6.2,6.2,0,0,1-3.85,1h-3v-.36c1.12-.11,1.17-.2,1.17-1.27v-5.18c0-1.12-.15-1.17-1.17-1.28v-.36Zm-1.32,6.72c0,1,.42,1.25,1.39,1.25,2.34,0,3.54-1.6,3.54-3.88a3.39,3.39,0,0,0-1.51-3.12,4.17,4.17,0,0,0-2.22-.52,1.77,1.77,0,0,0-1,.19c-.12.07-.17.22-.17.72Z" transform="translate(-64.21 -191.76)"/><path class="cls-1" d="M276.18,208.63a4.18,4.18,0,0,1,4.21,4.29,4.3,4.3,0,1,1-8.6.19A4.33,4.33,0,0,1,276.18,208.63Zm-.26.48c-1.46,0-2.78,1.22-2.78,3.65s1.32,4.2,3.17,4.2c1.57,0,2.76-1.17,2.76-3.68C279.07,210.55,277.62,209.11,275.92,209.11Z" transform="translate(-64.21 -191.76)"/><path class="cls-1" d="M292,209.17c-1.08.11-1.18.17-1.18,1.26v5.22c0,1.09.12,1.13,1.18,1.25v.36h-3.48v-.36c1.08-.13,1.18-.16,1.18-1.25v-2.6h-4.44v2.6c0,1.08.1,1.12,1.17,1.25v.36H283v-.36c1.06-.12,1.17-.16,1.17-1.25v-5.22c0-1.09-.11-1.15-1.17-1.26v-.36h3.48v.36c-1,.09-1.17.19-1.17,1.26v2.07h4.44v-2.07c0-1.07-.14-1.17-1.18-1.26v-.36H292Z" transform="translate(-64.21 -191.76)"/><path class="cls-1" d="M299.27,217.26v-.36c.84-.11,1-.24.77-.73s-.43-1.16-.71-2h-2.8c-.21.59-.41,1.09-.59,1.63-.29.84-.1,1,1,1.08v.36h-3v-.36c.82-.11,1-.2,1.48-1.37l2.69-6.82.42-.08c.82,2.22,1.72,4.68,2.53,6.93.42,1.13.54,1.23,1.46,1.34v.36Zm-1.3-6.93-1.25,3.33h2.43Z" transform="translate(-64.21 -191.76)"/><path class="cls-2" d="M78.16,208.61a11.46,11.46,0,0,1,8.1-8.11,11.46,11.46,0,0,1-5.14,19.19A11.47,11.47,0,0,1,78.16,208.61Z" transform="translate(-64.21 -191.76)"/><path class="cls-2" d="M72.42,211.58a11.46,11.46,0,0,1,3-11.08,11.47,11.47,0,0,1,5.14,19.19A11.48,11.48,0,0,1,72.42,211.58Z" transform="translate(-64.21 -191.76)"/><path class="cls-2" d="M78.82,196.11a4,4,0,0,1,2-3.48,4,4,0,0,1,0,7A4,4,0,0,1,78.82,196.11Z" transform="translate(-64.21 -191.76)"/><path class="cls-2" d="M93.11,216.16a4,4,0,0,1,3.47,2,4,4,0,0,1-7,0A4,4,0,0,1,93.11,216.16Z" transform="translate(-64.21 -191.76)"/><path class="cls-2" d="M68.55,216.16a4,4,0,0,1,3.48,2,4,4,0,0,1-7,0A4,4,0,0,1,68.55,216.16Z" transform="translate(-64.21 -191.76)"/></svg>